<svg width="30" height="30" xmlns="http://www.w3.org/2000/svg" style="user-select:auto">
    <g style="user-select:auto">
        <path style="user-select:auto"
              d="M11.754.626c-.237.031-.687.087-1 .125-2.18.262-4.693 1.369-6.475 2.844-1.068.887-1.762 1.762-2.362 2.993-.656 1.325-.863 2.132-.919 3.563-.075 1.719.331 3.112 1.181 4.062.87.982 2.17.844 2.17-.23 0-.363-.138-.563-.776-1.145-.987-.906-1.35-1.587-1.4-2.637-.069-1.469.363-2.85 1.331-4.238.87-1.25 2.144-2.268 3.857-3.093 1.637-.788 3.068-1.132 4.737-1.138 1.369-.006 2 .144 2.969.7.419.244.556.363.875.794.644.85.85 1.794.631 2.869-.206 1-.562 1.7-1.244 2.437a4.913 4.913 0 01-3.668 1.613c-.632 0-1.375-.107-1.375-.194 0-.075 1.075-4.306 1.443-5.675.257-.975.27-1.031.2-1.031-.03 0-.268.056-.525.118a17.46 17.46 0 01-2.7.432l-.7.043-.1.382-.106.387.363.038c.356.043.556.168.643.425.02.056-.03.45-.112.875-.138.712-.206 1.018-.531 2.3-.063.256-.27 1.1-.463 1.875-.194.775-.394 1.562-.444 1.75-.056.187-.137.512-.18.718-.05.207-.15.6-.226.875-.069.275-.181.725-.244 1-.3 1.27-.7 2.738-.875 3.2-.343.888-.756 1.42-1.337 1.72-.294.15-1.156.45-1.481.518-.325.069-.563.206-.563.331 0 .056-.044.225-.094.375-.056.15-.08.294-.068.319.018.025.28 0 .58-.063 1.27-.256 2.726-.3 4.495-.143l.443.037.038-.831c.062-1.35.425-2.806.962-3.894.138-.269.325-.937.707-2.475.106-.437.43-1.731.568-2.269l.063-.237.419.019.412.018.181.563c.1.306.2.619.225.681.038.106.107.063.544-.319a12.96 12.96 0 015.05-2.768c.619-.182.638-.188 1.044-.613 1.256-1.306 1.806-2.875 1.525-4.356-.169-.913-.563-1.588-1.25-2.163-.738-.612-2.106-1.162-3.294-1.33C13.292.55 12.63.52 11.754.625z"/>
        <path style="user-select:auto"
              d="M20.01 9.5c-3.306.276-6.118 1.55-8.306 3.77-2.106 2.143-3.156 4.518-3.162 7.175 0 1.743.512 3.143 1.506 4.087.538.513.756.619 1.294.619h.456l.244-.275c.194-.219.244-.319.244-.519 0-.356-.2-.687-.638-1.062-.806-.682-1.281-1.207-1.506-1.65-1.113-2.213.162-5.863 2.837-8.125 1.388-1.182 3.363-2.213 5.088-2.65 1.825-.469 3.856-.488 5.219-.05 1.68.537 2.587 1.85 2.475 3.6-.094 1.506-.694 2.75-1.907 3.95-.687.675-1.4 1.075-2.425 1.35-.343.093-.612.118-1.393.106-.532-.006-1.044-.038-1.132-.063l-.162-.05.369-1.375c.7-2.63.8-3.006 1.087-4.062.156-.588.369-1.313.469-1.619.106-.3.175-.562.162-.575-.012-.012-.45.063-.975.163-.518.1-1.443.25-2.043.325-1.213.156-1.15.118-1.244.637l-.044.225h.225c.275 0 .556.131.688.325.175.25.112.7-.363 2.613l-.469 1.862.188.45c.45 1.113 1.394 2.906 1.494 2.844.025-.019.087-.169.13-.338l.076-.306 1.506-.031c1.294-.031 1.6-.056 2.194-.188 3.081-.693 5.25-2.3 6.156-4.562 1.2-3-.531-5.725-4.1-6.444-1.037-.206-2.812-.275-4.237-.156z"/>
        <path style="user-select:auto"
              d="M13.492 14.113c-.5.432-1.269 1.263-1.269 1.382 0 .125.625 1.937.9 2.612 1.306 3.213 3.369 5.85 5.35 6.856.638.32 1.419.57 2.031.65.313.038.657.082.77.1.268.032 1.193-.068 1.65-.187.968-.244 1.955-.981 2.4-1.8.243-.444.287-1.131.093-1.438-.2-.325-.419-.443-.825-.443-.619-.007-.875.28-1.213 1.337-.362 1.131-1.25 1.644-2.506 1.45-1.75-.275-3.212-1.962-4.737-5.462-.325-.744-.938-2.357-1.07-2.8a39.989 39.989 0 00-.468-1.375c-.212-.6-.4-1.144-.419-1.207-.018-.056-.062-.106-.106-.106-.037 0-.3.194-.581.431zm1.756 9.488c-.562 2.494-1.112 3.862-1.781 4.419-.4.337-1.263.668-2.138.818-.262.044-.33.157-.4.644l-.037.281.212-.037c1.657-.269 2.032-.3 3.4-.269a26.93 26.93 0 012.313.15c1.4.175 2.512.175 3.425-.012.406-.082.769-.175.806-.213.075-.075.244-.831.2-.9-.019-.031-.081-.025-.137.006a8.24 8.24 0 01-.7.2c-.525.132-.738.15-1.782.15-.937 0-1.287-.025-1.668-.118-.313-.069-.488-.144-.488-.194 0-.05.069-.306.15-.575.219-.706.65-2.263.694-2.519.031-.206.019-.231-.3-.456-.181-.131-.625-.531-.988-.888-.356-.362-.668-.656-.693-.656-.025 0-.063.075-.088.169z"/>
    </g>
</svg>