<svg xmlns="http://www.w3.org/2000/svg" width="24" height="24"><path d="M10.719 2.082C8.147 4.11 6 7.294 6 12c0 4.569 1.938 7.798 4.548 9.895C5.719 21.19 2 17.021 2 12c0-5.08 3.808-9.288 8.719-9.918zM12 0C5.383 0 0 5.383 0 12s5.383 12 12 12c1.894 0 3.87-.333 5.37-1.179C13.917 22.208 8 19.454 8 12c0-7.555 6.422-10.317 9.37-10.821C15.63.497 13.894 0 12 0zm0 10.999A4.51 4.51 0 0114.999 14 4.52 4.52 0 0118 11a4.521 4.521 0 01-3.001-3A4.509 4.509 0 0112 10.999zm8.001.001a3.011 3.011 0 012 2.001A3.006 3.006 0 0124 11a3.012 3.012 0 01-2-2 3.01 3.01 0 01-1.999 2zm-1-9a4.514 4.514 0 01-2.998 3.001 4.52 4.52 0 013.001 3.002A4.515 4.515 0 0122 5.001 4.522 4.522 0 0119.001 2z"/></svg>